<svg xmlns="http://www.w3.org/2000/svg" width="960" height="540" viewBox="0 0 960 540">
<rect width="100%" height="100%" fill="white"/>
<text x="480.0" y="28" text-anchor="middle" font-family="sans-serif" font-size="18">gold distribution, minY=-128</text>
<line x1="78" y1="474.00" x2="936" y2="474.00" stroke="#e5e7eb"/>
<text x="70" y="478.00" text-anchor="end" font-family="sans-serif" font-size="11">0.00</text>
<line x1="78" y1="389.60" x2="936" y2="389.60" stroke="#e5e7eb"/>
<text x="70" y="393.60" text-anchor="end" font-family="sans-serif" font-size="11">1.40</text>
<line x1="78" y1="305.20" x2="936" y2="305.20" stroke="#e5e7eb"/>
<text x="70" y="309.20" text-anchor="end" font-family="sans-serif" font-size="11">2.79</text>
<line x1="78" y1="220.80" x2="936" y2="220.80" stroke="#e5e7eb"/>
<text x="70" y="224.80" text-anchor="end" font-family="sans-serif" font-size="11">4.19</text>
<line x1="78" y1="136.40" x2="936" y2="136.40" stroke="#e5e7eb"/>
<text x="70" y="140.40" text-anchor="end" font-family="sans-serif" font-size="11">5.59</text>
<line x1="78" y1="52.00" x2="936" y2="52.00" stroke="#e5e7eb"/>
<text x="70" y="56.00" text-anchor="end" font-family="sans-serif" font-size="11">6.99</text>
<line x1="78.00" y1="52" x2="78.00" y2="474" stroke="#f3f4f6"/>
<text x="78.00" y="494" text-anchor="middle" font-family="sans-serif" font-size="11">-128</text>
<line x1="205.11" y1="52" x2="205.11" y2="474" stroke="#f3f4f6"/>
<text x="205.11" y="494" text-anchor="middle" font-family="sans-serif" font-size="11">-64</text>
<line x1="332.22" y1="52" x2="332.22" y2="474" stroke="#f3f4f6"/>
<text x="332.22" y="494" text-anchor="middle" font-family="sans-serif" font-size="11">0</text>
<line x1="459.33" y1="52" x2="459.33" y2="474" stroke="#f3f4f6"/>
<text x="459.33" y="494" text-anchor="middle" font-family="sans-serif" font-size="11">64</text>
<line x1="586.44" y1="52" x2="586.44" y2="474" stroke="#f3f4f6"/>
<text x="586.44" y="494" text-anchor="middle" font-family="sans-serif" font-size="11">128</text>
<line x1="713.56" y1="52" x2="713.56" y2="474" stroke="#f3f4f6"/>
<text x="713.56" y="494" text-anchor="middle" font-family="sans-serif" font-size="11">192</text>
<line x1="840.67" y1="52" x2="840.67" y2="474" stroke="#f3f4f6"/>
<text x="840.67" y="494" text-anchor="middle" font-family="sans-serif" font-size="11">256</text>
<line x1="78" y1="474" x2="936" y2="474" stroke="#111827"/>
<line x1="78" y1="52" x2="78" y2="474" stroke="#111827"/>
<text x="507.0" y="522" text-anchor="middle" font-family="sans-serif" font-size="12">Y bucket minimum</text>
<text x="18" y="263.0" text-anchor="middle" transform="rotate(-90 18 263.0)" font-family="sans-serif" font-size="12">mean blocks per chunk</text>
<polyline points="78.00,474.00 109.78,474.00 141.56,474.00 173.33,457.62 205.11,209.34 236.89,221.05 268.67,59.17 300.44,92.07 332.22,265.31 364.00,407.51 395.78,474.00 427.56,474.00 459.33,474.00 491.11,474.00 522.89,474.00 554.67,474.00 586.44,474.00 618.22,474.00 650.00,474.00 681.78,474.00 713.56,474.00 745.33,474.00 777.11,474.00 808.89,474.00 840.67,474.00 872.44,474.00 904.22,474.00 936.00,474.00" fill="none" stroke="#2563eb" stroke-width="2"/>
<line x1="90" y1="68" x2="114" y2="68" stroke="#2563eb" stroke-width="3"/>
<text x="120" y="72" font-family="sans-serif" font-size="11">community-off</text>
<polyline points="78.00,253.00 109.78,224.21 141.56,220.53 173.33,206.70 205.11,52.00 236.89,226.85 268.67,218.92 300.44,215.67 332.22,244.12 364.00,297.64 395.78,472.91 427.56,474.00 459.33,474.00 491.11,474.00 522.89,474.00 554.67,474.00 586.44,474.00 618.22,474.00 650.00,474.00 681.78,474.00 713.56,474.00 745.33,474.00 777.11,474.00 808.89,474.00 840.67,474.00 872.44,474.00 904.22,474.00 936.00,474.00" fill="none" stroke="#dc2626" stroke-width="2"/>
<line x1="90" y1="86" x2="114" y2="86" stroke="#dc2626" stroke-width="3"/>
<text x="120" y="90" font-family="sans-serif" font-size="11">community-on</text>
<polyline points="78.00,474.00 109.78,474.00 141.56,474.00 173.33,457.62 205.11,208.35 236.89,221.14 268.67,59.83 300.44,91.12 332.22,265.27 364.00,407.88 395.78,474.00 427.56,474.00 459.33,474.00 491.11,474.00 522.89,474.00 554.67,474.00 586.44,474.00 618.22,474.00 650.00,474.00 681.78,474.00 713.56,474.00 745.33,474.00 777.11,474.00 808.89,474.00 840.67,474.00 872.44,474.00 904.22,474.00 936.00,474.00" fill="none" stroke="#16a34a" stroke-width="2"/>
<line x1="90" y1="104" x2="114" y2="104" stroke="#16a34a" stroke-width="3"/>
<text x="120" y="108" font-family="sans-serif" font-size="11">official-3.0.17</text>
</svg>
