<svg xmlns="http://www.w3.org/2000/svg" width="960" height="540" viewBox="0 0 960 540">
<rect width="100%" height="100%" fill="white"/>
<text x="480.0" y="28" text-anchor="middle" font-family="sans-serif" font-size="18">lapis distribution, minY=-64</text>
<line x1="78" y1="474.00" x2="936" y2="474.00" stroke="#e5e7eb"/>
<text x="70" y="478.00" text-anchor="end" font-family="sans-serif" font-size="11">0.00</text>
<line x1="78" y1="389.60" x2="936" y2="389.60" stroke="#e5e7eb"/>
<text x="70" y="393.60" text-anchor="end" font-family="sans-serif" font-size="11">1.08</text>
<line x1="78" y1="305.20" x2="936" y2="305.20" stroke="#e5e7eb"/>
<text x="70" y="309.20" text-anchor="end" font-family="sans-serif" font-size="11">2.16</text>
<line x1="78" y1="220.80" x2="936" y2="220.80" stroke="#e5e7eb"/>
<text x="70" y="224.80" text-anchor="end" font-family="sans-serif" font-size="11">3.25</text>
<line x1="78" y1="136.40" x2="936" y2="136.40" stroke="#e5e7eb"/>
<text x="70" y="140.40" text-anchor="end" font-family="sans-serif" font-size="11">4.33</text>
<line x1="78" y1="52.00" x2="936" y2="52.00" stroke="#e5e7eb"/>
<text x="70" y="56.00" text-anchor="end" font-family="sans-serif" font-size="11">5.41</text>
<line x1="115.30" y1="52" x2="115.30" y2="474" stroke="#f3f4f6"/>
<text x="115.30" y="494" text-anchor="middle" font-family="sans-serif" font-size="11">-48</text>
<line x1="227.22" y1="52" x2="227.22" y2="474" stroke="#f3f4f6"/>
<text x="227.22" y="494" text-anchor="middle" font-family="sans-serif" font-size="11">0</text>
<line x1="339.13" y1="52" x2="339.13" y2="474" stroke="#f3f4f6"/>
<text x="339.13" y="494" text-anchor="middle" font-family="sans-serif" font-size="11">48</text>
<line x1="451.04" y1="52" x2="451.04" y2="474" stroke="#f3f4f6"/>
<text x="451.04" y="494" text-anchor="middle" font-family="sans-serif" font-size="11">96</text>
<line x1="562.96" y1="52" x2="562.96" y2="474" stroke="#f3f4f6"/>
<text x="562.96" y="494" text-anchor="middle" font-family="sans-serif" font-size="11">144</text>
<line x1="674.87" y1="52" x2="674.87" y2="474" stroke="#f3f4f6"/>
<text x="674.87" y="494" text-anchor="middle" font-family="sans-serif" font-size="11">192</text>
<line x1="786.78" y1="52" x2="786.78" y2="474" stroke="#f3f4f6"/>
<text x="786.78" y="494" text-anchor="middle" font-family="sans-serif" font-size="11">240</text>
<line x1="898.70" y1="52" x2="898.70" y2="474" stroke="#f3f4f6"/>
<text x="898.70" y="494" text-anchor="middle" font-family="sans-serif" font-size="11">288</text>
<line x1="78" y1="474" x2="936" y2="474" stroke="#111827"/>
<line x1="78" y1="52" x2="78" y2="474" stroke="#111827"/>
<text x="507.0" y="522" text-anchor="middle" font-family="sans-serif" font-size="12">Y bucket minimum</text>
<text x="18" y="263.0" text-anchor="middle" transform="rotate(-90 18 263.0)" font-family="sans-serif" font-size="12">mean blocks per chunk</text>
<polyline points="78.00,331.32 115.30,302.80 152.61,197.48 189.91,52.00 227.22,109.05 264.52,285.86 301.83,390.62 339.13,446.82 376.43,474.00 413.74,474.00 451.04,474.00 488.35,474.00 525.65,474.00 562.96,474.00 600.26,474.00 637.57,474.00 674.87,474.00 712.17,474.00 749.48,474.00 786.78,474.00 824.09,474.00 861.39,474.00 898.70,474.00 936.00,474.00" fill="none" stroke="#2563eb" stroke-width="2"/>
<line x1="90" y1="68" x2="114" y2="68" stroke="#2563eb" stroke-width="3"/>
<text x="120" y="72" font-family="sans-serif" font-size="11">community-off</text>
<polyline points="78.00,331.38 115.30,303.04 152.61,197.24 189.91,52.12 227.22,109.11 264.52,286.04 301.83,390.62 339.13,446.82 376.43,474.00 413.74,474.00 451.04,474.00 488.35,474.00 525.65,474.00 562.96,474.00 600.26,474.00 637.57,474.00 674.87,474.00 712.17,474.00 749.48,474.00 786.78,474.00 824.09,474.00 861.39,474.00 898.70,474.00 936.00,474.00" fill="none" stroke="#dc2626" stroke-width="2"/>
<line x1="90" y1="86" x2="114" y2="86" stroke="#dc2626" stroke-width="3"/>
<text x="120" y="90" font-family="sans-serif" font-size="11">community-on</text>
<polyline points="78.00,331.38 115.30,303.29 152.61,197.42 189.91,52.12 227.22,109.47 264.52,285.79 301.83,390.38 339.13,446.63 376.43,474.00 413.74,474.00 451.04,474.00 488.35,474.00 525.65,474.00 562.96,474.00 600.26,474.00 637.57,474.00 674.87,474.00 712.17,474.00 749.48,474.00 786.78,474.00 824.09,474.00 861.39,474.00 898.70,474.00 936.00,474.00" fill="none" stroke="#16a34a" stroke-width="2"/>
<line x1="90" y1="104" x2="114" y2="104" stroke="#16a34a" stroke-width="3"/>
<text x="120" y="108" font-family="sans-serif" font-size="11">official-3.0.17</text>
<polyline points="78.00,322.55 115.30,297.56 152.61,209.18 189.91,81.32 227.22,101.85 264.52,246.48 301.83,313.77 339.13,339.98 376.43,474.00 413.74,474.00 451.04,474.00 488.35,474.00 525.65,474.00 562.96,474.00 600.26,474.00 637.57,474.00 674.87,474.00 712.17,474.00 749.48,474.00 786.78,474.00 824.09,474.00 861.39,474.00 898.70,474.00 936.00,474.00" fill="none" stroke="#9333ea" stroke-width="2"/>
<line x1="90" y1="122" x2="114" y2="122" stroke="#9333ea" stroke-width="3"/>
<text x="120" y="126" font-family="sans-serif" font-size="11">vanilla-reference</text>
</svg>
